<svg xmlns="http://www.w3.org/2000/svg" viewBox="0 0 111 32" fill="none" class="sc-GEbAx cqEEYz"><path d="M46.1177 4.57143C52.4202 4.57143 57.5462 9.69752 57.5462 16C57.5462 22.3025 52.4202 27.4286 46.1177 27.4286C39.8152 27.4286 34.6891 22.3025 34.6891 16C34.6891 9.69752 39.8152 4.57143 46.1177 4.57143ZM46.1177 0C37.2826 0 30.1177 7.16495 30.1177 16C30.1177 24.8381 37.2826 32 46.1177 32C54.9527 32 62.1177 24.835 62.1177 16C62.1177 7.16495 54.9527 0 46.1177 0Z" fill="url(#a1zrs)"></path><path d="M95.9699 1.85686C95.9699 1.3549 95.5638 0.944204 95.0675 0.944204H92.3514C91.9424 0.944204 91.5965 1.22713 91.4882 1.6074V15.854H91.4491C91.4491 21.7254 86.7268 26.5016 80.9216 26.5016C75.1164 26.5016 70.3941 21.7254 70.3941 15.854V1.77472C70.352 1.30927 69.97 0.941162 69.5008 0.941162H66.7847C66.2884 0.941162 65.8823 1.35186 65.8823 1.85382V15.8479V16.1521H65.8913C66.0508 24.4116 72.7192 31.0588 80.9216 31.0588C89.124 31.0588 95.7924 24.4116 95.9518 16.1521H96" fill="url(#wpsie)"></path><path d="M17.3182 15.9559C24.3901 14.8839 29.8524 8.85855 30.1176 1.49996C30.0724 1.22056 29.8554 0.995828 29.5811 0.941162H26.2772C25.8793 1.03531 25.5778 1.39671 25.5778 1.82492V1.70344C25.189 7.20947 20.619 11.5706 15.0573 11.5706C9.48958 11.5706 4.91963 7.2034 4.53679 1.69129C4.48253 1.32382 4.20821 1.0262 3.8525 0.941162H0.488345C0.207999 1.02012 0.00301448 1.27523 0 1.58196C0.301448 8.90714 5.74861 14.89 12.7965 15.9559V30.3117C12.8748 30.7369 13.2426 31.0588 13.6857 31.0588H16.3988C16.8961 31.0588 17.3031 30.6488 17.3031 30.1477" fill="url(#7uq7z)"></path><path d="M107.294 27.2941L107.294 24.6535C107.294 23.1597 106.635 22.4271 105.756 22.4271C104.901 22.4271 104.399 23.1278 104.369 23.8222L104.313 23.8222C104.184 23.1852 103.798 22.6819 103.111 22.6819C102.27 22.6819 101.647 23.3826 101.647 24.7969L101.647 27.2941L107.294 27.2941ZM106.439 26.1124L104.785 26.1124L104.785 24.8096C104.785 24.0802 105.171 23.6279 105.676 23.6279C106.125 23.6279 106.439 23.9846 106.439 24.8415L106.439 26.1124ZM104.049 26.1124L102.491 26.1124L102.491 24.9179C102.491 24.2235 102.808 23.8636 103.244 23.8636C103.74 23.8636 104.049 24.3286 104.049 24.9434L104.049 26.1124Z" fill="#8B8E8F"></path><path d="M107.294 21.2389L107.294 16.9707L106.437 16.9707L106.437 20.0572L104.895 20.0572L104.895 17.216L104.038 17.216L104.038 20.0572L102.505 20.0572L102.505 16.9962L101.647 16.9962L101.647 21.2389L107.294 21.2389Z" fill="#8B8E8F"></path><path d="M102.505 15.9171L102.505 13.9008L107.294 13.9008L107.294 12.7287L102.505 12.7287L102.505 10.7124L101.647 10.7125L101.647 15.9171L102.505 15.9171Z" fill="#8B8E8F"></path><path d="M107.294 9.49957L105.902 8.96127L105.902 6.50866L107.294 5.96717L107.294 4.70583L101.647 7.00555L101.647 8.46438L107.294 10.7609L107.294 9.49957ZM105.08 8.64275L102.805 7.76044L102.805 7.70948L105.08 6.82718L105.08 8.64275Z" fill="#8B8E8F"></path><rect x="98.8235" y="0.941162" width="11.2941" height="30.1176" rx="5.64706" stroke="#15156E" stroke-opacity="0.1"></rect><defs><linearGradient id="a1zrs" x1="46.1178" y1="0" x2="46.1178" y2="32" gradientUnits="userSpaceOnUse"><stop stop-color="#FB00FF"></stop><stop offset="1" stop-color="#FFCC00"></stop></linearGradient><linearGradient id="wpsie" x1="80.9408" y1="0.941162" x2="80.9408" y2="31.0588" gradientUnits="userSpaceOnUse"><stop stop-color="#00D77C"></stop><stop offset="1" stop-color="#43DDEB"></stop></linearGradient><linearGradient id="7uq7z" x1="15.0589" y1="0.941162" x2="15.0589" y2="31.0588" gradientUnits="userSpaceOnUse"><stop offset="0.0625" stop-color="#007AFF"></stop><stop offset="0.885417" stop-color="#8D41E5"></stop></linearGradient></defs></svg>